# Blender v2.79 (sub 0) OBJ File: ''
# www.blender.org
mtllib spinning_wheel1.mtl
o Cube.001_Cube.004
v -0.038811 -0.151958 -0.175191
v -0.038811 0.183445 -0.175191
v -0.038811 -0.151958 -0.199148
v -0.038811 0.183445 -0.199148
v -0.024436 -0.151958 -0.175191
v -0.024436 0.183445 -0.175191
v -0.024436 -0.151958 -0.199148
v -0.024436 0.183445 -0.199148
v 0.024436 -0.151958 -0.175191
v 0.024436 0.183445 -0.175191
v 0.024436 -0.151958 -0.199148
v 0.024436 0.183445 -0.199148
v 0.038811 -0.151958 -0.175191
v 0.038811 0.183445 -0.175191
v 0.038811 -0.151958 -0.199148
v 0.038811 0.183445 -0.199148
v 0.047915 -0.199873 -0.474657
v 0.047915 -0.199873 0.471158
v -0.047915 -0.199873 0.471158
v -0.047915 -0.199873 -0.474658
v 0.047915 -0.151958 -0.474657
v 0.047915 -0.151958 0.471159
v -0.047915 -0.151958 0.471158
v -0.047915 -0.151958 -0.474657
v -0.019166 -0.199873 0.471158
v 0.019166 -0.199873 0.471158
v 0.047915 -0.199873 0.442410
v -0.047915 -0.199873 0.442410
v -0.019166 -0.199873 0.442410
v 0.019166 -0.199873 0.442410
v -0.095829 -0.487361 0.471158
v -0.067081 -0.487361 0.471158
v -0.095829 -0.487361 0.442410
v -0.067081 -0.487361 0.442410
v 0.095829 -0.487361 0.471158
v 0.067081 -0.487361 0.471158
v 0.095829 -0.487361 0.442410
v 0.067081 -0.487361 0.442410
v 0.019166 -0.199873 -0.474657
v -0.019166 -0.199873 -0.474658
v 0.047915 -0.199873 -0.445909
v -0.047915 -0.199873 -0.445909
v 0.019166 -0.199873 -0.445909
v -0.019166 -0.199873 -0.445909
v 0.047915 -0.199873 -0.474657
v 0.019166 -0.199873 -0.474657
v 0.047915 -0.199873 -0.445909
v 0.019166 -0.199873 -0.445909
v 0.095829 -0.487361 -0.474657
v 0.067081 -0.487361 -0.474657
v 0.095829 -0.487361 -0.445909
v 0.067081 -0.487361 -0.445909
v -0.095829 -0.487361 -0.474658
v -0.067081 -0.487361 -0.474658
v -0.095829 -0.487361 -0.445909
v -0.067081 -0.487361 -0.445909
v -0.019166 -0.151958 0.339892
v -0.019166 -0.151958 0.291977
v 0.028749 -0.151958 0.339893
v 0.028749 -0.151958 0.291978
v -0.019166 0.039701 0.339892
v -0.019166 0.039701 0.291977
v 0.028749 0.039701 0.339892
v 0.028749 0.039701 0.291978
v -0.026353 0.039701 0.347079
v -0.026353 0.039701 0.284790
v 0.035936 0.039701 0.347080
v 0.035936 0.039701 0.284791
v -0.026353 0.135530 0.347079
v -0.026353 0.135530 0.284790
v 0.035936 0.135530 0.347080
v 0.035936 0.135530 0.284791
v -0.023957 -0.135706 -0.043919
v -0.023957 0.314545 0.119959
v -0.023957 0.028172 -0.494170
v -0.023957 0.478422 -0.330292
v 0.023957 -0.135706 -0.043919
v 0.023957 0.314545 0.119959
v 0.023957 0.028172 -0.494170
v 0.023957 0.478422 -0.330292
v -0.023957 -0.105000 -0.058238
v -0.023957 0.300226 0.089252
v -0.023957 0.042490 -0.463463
v -0.023957 0.447716 -0.315973
v 0.023957 -0.105000 -0.058238
v 0.023957 0.300226 0.089252
v 0.023957 0.042490 -0.463463
v 0.023957 0.447716 -0.315973
v -0.023957 0.365777 -0.090848
v 0.023957 0.365777 -0.090848
v -0.023957 0.382165 -0.135873
v 0.023957 0.382165 -0.135873
v -0.023957 0.120126 0.023701
v 0.023957 0.120126 0.023701
v -0.023957 0.075101 0.007313
v 0.023957 0.075101 0.007313
v 0.023957 0.222591 -0.397912
v -0.023957 0.222591 -0.397912
v 0.023957 0.267616 -0.381524
v -0.023957 0.267616 -0.381524
v -0.023957 -0.039449 -0.238338
v 0.023957 -0.039449 -0.238338
v -0.023957 -0.023061 -0.283363
v 0.023957 -0.023061 -0.283363
v -0.023957 0.365777 -0.090848
v 0.023957 0.365777 -0.090848
v -0.023957 0.382165 -0.135873
v 0.023957 0.382165 -0.135873
v -0.023957 0.365777 -0.090848
v 0.023957 0.365777 -0.090848
v -0.023957 0.382165 -0.135873
v 0.023957 0.382165 -0.135873
vt 0.644206 0.826337
vt 0.644206 0.949513
vt 0.635916 0.949513
vt 0.635916 0.826337
vt 0.340899 0.826337
vt 0.340899 0.703863
vt 0.390641 0.703863
vt 0.390641 0.826337
vt 0.792870 0.175966
vt 0.792870 0.299142
vt 0.784580 0.299142
vt 0.784580 0.175966
vt 0.685658 0.826337
vt 0.685658 0.703863
vt 0.735400 0.703863
vt 0.735400 0.826337
vt 0.687316 0.879126
vt 0.687316 0.826337
vt 0.695587 0.826337
vt 0.695587 0.879126
vt 0.703848 0.826337
vt 0.703848 0.879126
vt 0.695587 0.879126
vt 0.695587 0.826337
vt 0.382350 0.826337
vt 0.382350 0.949513
vt 0.374060 0.949513
vt 0.374060 0.826337
vt 0.782317 0.945942
vt 0.782317 0.823468
vt 0.832059 0.823468
vt 0.832059 0.945942
vt 0.390641 0.826337
vt 0.390641 0.949513
vt 0.382350 0.949513
vt 0.382350 0.826337
vt 0.635916 0.826337
vt 0.635916 0.703863
vt 0.685658 0.703863
vt 0.685658 0.826337
vt 0.327564 0.633476
vt 0.327564 0.686266
vt 0.319292 0.686266
vt 0.319292 0.633476
vt 0.712109 0.826337
vt 0.712109 0.879126
vt 0.703848 0.879126
vt 0.703848 0.826337
vt 0.000000 0.000000
vt 0.326557 0.000000
vt 0.326557 0.351931
vt 0.000000 0.351931
vt 0.652690 0.000000
vt 0.652690 0.351931
vt 0.326557 0.351931
vt 0.326557 0.000000
vt 0.935224 0.527897
vt 0.951805 0.527897
vt 0.951805 0.875246
vt 0.935224 0.875246
vt 0.915984 0.351931
vt 0.899497 0.351931
vt 0.899497 0.000000
vt 0.915984 0.000000
vt 0.949051 0.347349
vt 0.932470 0.347349
vt 0.932470 0.000000
vt 0.949050 0.000000
vt 0.932470 0.351931
vt 0.915984 0.351931
vt 0.915984 0.000000
vt 0.967993 0.809914
vt 0.964853 0.704388
vt 0.974761 0.704056
vt 0.977901 0.809582
vt 0.951805 0.633424
vt 0.954945 0.527897
vt 0.964853 0.528229
vt 0.961713 0.633756
vt 0.987824 0.633708
vt 0.977901 0.633443
vt 0.980405 0.527897
vt 0.990328 0.528162
vt 0.782317 0.527897
vt 0.833286 0.618567
vt 0.833286 0.823468
vt 0.782317 0.732798
vt 0.967993 0.528229
vt 0.977901 0.527897
vt 0.990328 0.809796
vt 0.980405 0.809531
vt 0.935224 0.732798
vt 0.884255 0.823468
vt 0.884255 0.618567
vt 0.935224 0.527897
vt 0.987573 0.281634
vt 0.977650 0.281899
vt 0.975147 0.176353
vt 0.985070 0.176088
vt 0.977651 0.000265
vt 0.987573 0.000000
vt 0.964853 0.809914
vt 0.954945 0.809582
vt 0.441610 0.703863
vt 0.492579 0.794533
vt 0.492579 0.999433
vt 0.441610 0.908763
vt 0.797559 0.090670
vt 0.848528 0.000000
vt 0.848528 0.204901
vt 0.797559 0.295571
vt 0.319292 0.527897
vt 0.329218 0.527897
vt 0.329218 0.633476
vt 0.319292 0.633476
vt 0.997496 0.105811
vt 0.987573 0.105546
vt 0.990077 0.000000
vt 1.000000 0.000265
vt 0.898382 0.823892
vt 0.908299 0.823468
vt 0.908299 0.999576
vt 0.898382 1.000000
vt 0.000000 0.000000
vt 0.000000 0.000000
vt 0.000000 0.000000
vt 0.000000 0.000000
vt 0.000000 0.000000
vt 0.000000 0.000000
vt 0.000000 0.000000
vt 0.962099 0.105527
vt 0.965239 0.000000
vt 0.975147 0.000332
vt 0.972007 0.105859
vt 0.390641 0.794533
vt 0.441610 0.703863
vt 0.441610 0.908763
vt 0.390641 0.999433
vt 0.287363 0.703863
vt 0.338332 0.794533
vt 0.338332 0.999433
vt 0.287363 0.908763
vt 0.975147 0.282017
vt 0.965239 0.281685
vt 0.952190 0.282017
vt 0.949050 0.176491
vt 0.958959 0.176159
vt 0.962099 0.281685
vt 0.848528 0.000000
vt 0.899497 0.090670
vt 0.899497 0.295571
vt 0.848528 0.204901
vt 0.884255 0.732798
vt 0.833286 0.823468
vt 0.833286 0.618567
vt 0.884255 0.527897
vt 1.000000 0.281899
vt 0.990077 0.281634
vt 0.952190 0.000332
vt 0.962099 0.000000
vt 0.331167 0.703863
vt 0.331167 0.527897
vt 0.347710 0.527897
vt 0.347710 0.703863
vt 0.863515 0.299142
vt 0.880037 0.299142
vt 0.880037 0.475107
vt 0.863515 0.475107
vt 0.357479 0.896723
vt 0.340899 0.896723
vt 0.340899 0.826337
vt 0.357479 0.826337
vt 0.357479 0.826337
vt 0.374060 0.826337
vt 0.374060 0.896723
vt 0.357479 0.896723
vt 0.784580 0.175966
vt 0.784580 0.351931
vt 0.718635 0.351931
vt 0.718635 0.175966
vt 0.652690 0.351931
vt 0.652690 0.175966
vt 0.718635 0.175966
vt 0.718635 0.351931
vt 0.735400 0.932618
vt 0.735400 0.703863
vt 0.756906 0.703863
vt 0.756906 0.932618
vt 0.760838 0.703863
vt 0.782317 0.703863
vt 0.782317 0.932618
vt 0.760838 0.932618
vt 0.830543 0.527897
vt 0.830543 0.299142
vt 0.863515 0.299142
vt 0.863515 0.527897
vt 0.830543 0.299142
vt 0.830543 0.527897
vt 0.797571 0.527897
vt 0.797571 0.299142
vt 0.665761 0.861530
vt 0.644206 0.861530
vt 0.644206 0.826337
vt 0.665761 0.826337
vt 0.687316 0.861530
vt 0.665761 0.861530
vt 0.665761 0.826337
vt 0.687316 0.826337
vt 0.492579 0.703863
vt 0.347710 0.703863
vt 0.347710 0.527897
vt 0.492579 0.527897
vt 0.653544 0.527897
vt 0.492579 0.527897
vt 0.492579 0.351931
vt 0.653544 0.351931
vt 0.492579 0.527897
vt 0.637448 0.527897
vt 0.637448 0.703863
vt 0.492579 0.703863
vt 0.331613 0.351931
vt 0.492579 0.351931
vt 0.492579 0.527897
vt 0.331614 0.527897
vt 0.319292 0.527897
vt 0.319292 0.703863
vt 0.160029 0.703863
vt 0.160029 0.527897
vt 0.000000 0.703863
vt 0.000000 0.527897
vt 0.160029 0.527897
vt 0.160029 0.703863
vt 0.144026 0.879828
vt 0.144026 0.703863
vt 0.287363 0.703863
vt 0.287363 0.879828
vt 0.797571 0.351931
vt 0.797571 0.527897
vt 0.653544 0.527897
vt 0.653544 0.351931
vt 0.331613 0.351931
vt 0.323323 0.360730
vt 0.174097 0.360730
vt 0.165807 0.351931
vt 0.323323 0.519099
vt 0.165807 0.527897
vt 0.174097 0.519099
vt 0.000000 0.351931
vt 0.008290 0.360730
vt 0.008290 0.519099
vt 0.000000 0.527897
vt 0.165807 0.527897
vt 0.157516 0.519099
vt 0.157516 0.360730
vt 0.165807 0.351931
vt 0.000000 0.000000
vt 0.000000 0.000000
vt 0.000000 0.000000
vt 0.000000 0.000000
vt 0.000000 0.000000
vt 0.000000 0.000000
vt 0.000000 0.000000
vt 0.000000 0.000000
vt 0.000000 0.000000
vt 0.000000 0.000000
vt 0.915594 0.351931
vt 0.931597 0.351931
vt 0.931597 0.527897
vt 0.915594 0.527897
vt 0.652690 0.175966
vt 0.652690 0.000000
vt 0.797559 0.000000
vt 0.797559 0.175966
vt 0.000000 0.000000
vt 0.000000 0.000000
vt 0.832059 0.823468
vt 0.848639 0.823468
vt 0.848639 0.981837
vt 0.832059 0.981837
vt 0.637448 0.703863
vt 0.637448 0.527897
vt 0.782317 0.527897
vt 0.782317 0.703863
vt 0.881801 0.981837
vt 0.865220 0.981837
vt 0.865220 0.823468
vt 0.881801 0.823468
vt 0.899497 0.351931
vt 0.915594 0.351931
vt 0.915594 0.527897
vt 0.899497 0.527897
vt 0.880037 0.475107
vt 0.880037 0.299142
vt 0.896134 0.299142
vt 0.896134 0.475107
vt 0.848639 0.823468
vt 0.865220 0.823468
vt 0.865220 0.981837
vt 0.848640 0.981837
vt 0.492579 0.879829
vt 0.492579 0.703863
vt 0.635916 0.703863
vt 0.635916 0.879828
vt 0.898382 0.981837
vt 0.881801 0.981837
vt 0.881801 0.823468
vt 0.898382 0.823468
vt 0.000000 0.879828
vt 0.000000 0.703863
vt 0.144026 0.703863
vt 0.144026 0.879828
vn -1.0000 -0.0000 0.0000
vn 0.0000 -0.0000 -1.0000
vn 1.0000 0.0000 0.0000
vn 0.0000 0.0000 1.0000
vn 0.0000 -1.0000 0.0000
vn 0.0000 1.0000 0.0000
vn -0.9864 0.1644 0.0000
vn 0.9864 -0.1644 0.0000
vn -0.9864 -0.1644 -0.0000
vn 0.9864 0.1644 0.0000
vn 0.0000 0.3420 -0.9397
vn 0.0000 -0.3420 0.9397
vn 0.0000 -0.9397 -0.3420
vn 0.0000 0.9397 0.3420
usemtl Material.001
s off
f 1/1/1 2/2/1 4/3/1 3/4/1
f 3/5/2 4/6/2 8/7/2 7/8/2
f 7/9/3 8/10/3 6/11/3 5/12/3
f 5/13/4 6/14/4 2/15/4 1/16/4
f 3/17/5 7/18/5 5/19/5 1/20/5
f 8/21/6 4/22/6 2/23/6 6/24/6
f 9/25/1 10/26/1 12/27/1 11/28/1
f 11/29/2 12/30/2 16/31/2 15/32/2
f 15/33/3 16/34/3 14/35/3 13/36/3
f 13/37/4 14/38/4 10/39/4 9/40/4
f 11/41/5 15/42/5 13/43/5 9/44/5
f 16/45/6 12/46/6 10/47/6 14/48/6
f 17/49/5 18/50/5 19/51/5 20/52/5
f 21/53/6 24/54/6 23/55/6 22/56/6
f 17/57/3 21/58/3 22/59/3 18/60/3
f 18/61/4 22/62/4 23/63/4 19/64/4
f 19/65/1 23/66/1 24/67/1 20/68/1
f 21/69/2 17/70/2 20/71/2 24/67/2
f 29/72/6 28/73/6 19/74/6 25/75/6
f 27/76/6 30/77/6 26/78/6 18/79/6
f 34/80/5 32/81/5 31/82/5 33/83/5
f 25/84/4 19/85/4 31/86/4 32/87/4
f 19/74/7 28/73/7 33/88/7 31/89/7
f 29/90/8 25/91/8 32/81/8 34/80/8
f 28/92/2 29/93/2 34/94/2 33/95/2
f 37/96/5 35/97/5 36/98/5 38/99/5
f 26/100/9 30/101/9 38/99/9 36/98/9
f 27/76/10 18/79/10 35/102/10 37/103/10
f 30/104/2 27/105/2 37/106/2 38/107/2
f 18/108/4 26/109/4 36/110/4 35/111/4
f 43/112/5 39/113/5 17/114/5 41/115/5
f 42/116/5 20/117/5 40/118/5 44/119/5
f 47/120/9 45/121/9 49/122/9 51/123/9
f 39/124/4 43/125/4 48/126/4 46/127/4
f 41/128/4 17/49/4 45/129/4 47/130/4
f 17/49/4 39/124/4 46/127/4 45/129/4
f 43/125/4 41/128/4 47/130/4 48/126/4
f 52/131/6 51/132/6 49/133/6 50/134/6
f 45/135/4 46/136/4 50/137/4 49/138/4
f 48/139/2 47/140/2 51/141/2 52/142/2
f 46/143/10 48/144/10 52/131/10 50/134/10
f 55/145/6 56/146/6 54/147/6 53/148/6
f 40/149/4 20/150/4 53/151/4 54/152/4
f 42/153/2 44/154/2 56/155/2 55/156/2
f 20/117/8 42/116/8 55/157/8 53/158/8
f 44/159/7 40/160/7 54/147/7 56/146/7
f 59/161/5 57/162/5 58/163/5 60/164/5
f 63/165/6 64/166/6 62/167/6 61/168/6
f 59/169/3 60/170/3 64/171/3 63/172/3
f 58/173/1 57/174/1 61/175/1 62/176/1
f 60/177/2 58/178/2 62/179/2 64/180/2
f 57/181/4 59/182/4 63/183/4 61/184/4
f 67/185/5 65/186/5 66/187/5 68/188/5
f 71/189/6 72/190/6 70/191/6 69/192/6
f 68/193/2 66/194/2 70/195/2 72/196/2
f 65/197/4 67/198/4 71/199/4 69/200/4
f 67/201/3 68/202/3 72/203/3 71/204/3
f 66/205/1 65/206/1 69/207/1 70/208/1
f 83/209/11 84/210/11 88/211/11 87/212/11
f 75/213/11 76/214/11 80/215/11 79/216/11
f 85/217/12 86/218/12 82/219/12 81/220/12
f 77/221/12 78/222/12 74/223/12 73/224/12
f 75/225/13 79/226/13 77/227/13 73/228/13
f 80/229/14 76/230/14 74/231/14 78/232/14
f 83/233/13 87/234/13 85/235/13 81/236/13
f 88/237/14 84/238/14 82/239/14 86/240/14
f 75/241/1 83/242/1 84/243/1 76/244/1
f 73/224/1 81/245/1 83/242/1 75/241/1
f 74/246/1 82/247/1 81/245/1 73/224/1
f 76/244/1 84/243/1 82/247/1 74/246/1
f 78/248/3 86/249/3 88/250/3 80/251/3
f 79/252/3 80/251/3 88/250/3 87/253/3
f 79/252/3 87/253/3 85/254/3 77/255/3
f 77/255/3 85/254/3 86/249/3 78/248/3
f 91/256/4 92/257/4 108/258/4 107/259/4
f 90/260/4 89/261/4 105/262/4 106/263/4
f 107/259/4 108/258/4 112/264/4 111/265/4
f 102/266/14 104/267/14 103/268/14 101/269/14
f 110/270/12 109/271/12 101/272/12 102/273/12
f 108/258/4 106/263/4 110/274/4 112/264/4
f 106/263/4 105/262/4 109/275/4 110/274/4
f 105/262/4 107/259/4 111/265/4 109/275/4
f 109/276/1 111/277/1 103/278/1 101/279/1
f 111/280/11 112/281/11 104/282/11 103/283/11
f 112/284/3 110/285/3 102/286/3 104/287/3
f 93/288/12 95/289/12 96/290/12 94/291/12
f 100/292/11 99/293/11 97/294/11 98/295/11
f 94/296/3 96/297/3 97/298/3 99/299/3
f 96/300/13 95/301/13 98/302/13 97/303/13
f 95/304/1 93/305/1 100/306/1 98/307/1
f 93/308/14 94/309/14 99/310/14 100/311/14
l 27 28
l 41 42
